<svg width="86" height="87" viewBox="0 0 86 87" fill="none" xmlns="http://www.w3.org/2000/svg">
<rect x="1.5" y="1.65039" width="83" height="83" fill="white"/>
<rect x="1.5" y="1.65039" width="83" height="83" stroke="#30DCCA" stroke-width="3"/>
<path d="M54.7031 40.1035C54.8906 39.9629 55.1719 40.1035 55.1719 40.3379V49.9004C55.1719 51.166 54.1406 52.1504 52.9219 52.1504H33.4219C32.1562 52.1504 31.1719 51.166 31.1719 49.9004V40.3379C31.1719 40.1035 31.4062 39.9629 31.5938 40.1035C32.6719 40.9473 34.0312 41.9785 38.8125 45.4473C39.7969 46.1504 41.4844 47.6973 43.1719 47.6973C44.8125 47.6973 46.5469 46.1504 47.4844 45.4473C52.2656 41.9785 53.625 40.9473 54.7031 40.1035ZM43.1719 46.1504C42.0469 46.1973 40.5 44.791 39.7031 44.2285C33.4688 39.7285 33 39.3066 31.5938 38.1816C31.3125 37.9941 31.1719 37.666 31.1719 37.291V36.4004C31.1719 35.1816 32.1562 34.1504 33.4219 34.1504H52.9219C54.1406 34.1504 55.1719 35.1816 55.1719 36.4004V37.291C55.1719 37.666 54.9844 37.9941 54.7031 38.1816C53.2969 39.3066 52.8281 39.7285 46.5938 44.2285C45.7969 44.791 44.25 46.1973 43.1719 46.1504Z" fill="#30DCCA"/>
</svg>
