<svg width="86" height="87" viewBox="0 0 86 87" fill="none" xmlns="http://www.w3.org/2000/svg">
<rect x="1.5" y="1.65063" width="83" height="83" fill="white"/>
<rect x="1.5" y="1.65063" width="83" height="83" stroke="#30DCCA" stroke-width="3"/>
<path d="M43.9901 33.7502C44.8509 33.7502 45.2319 33.751 45.5461 33.7791C49.0394 34.0919 51.808 36.8604 52.1207 40.3537C52.1489 40.6679 52.1496 41.0489 52.1496 41.9098V42.8997C52.1496 43.314 52.4854 43.6497 52.8996 43.6497C53.3138 43.6497 53.6496 43.314 53.6496 42.8997V41.8594C53.6496 41.0625 53.6496 40.6096 53.6147 40.22C53.2373 36.0039 49.896 32.6626 45.6799 32.2851C45.2902 32.2502 44.8374 32.2502 44.0404 32.2502H43.0001C42.5859 32.2502 42.2501 32.586 42.2501 33.0002C42.2501 33.4145 42.5859 33.7502 43.0001 33.7502L43.9901 33.7502Z" fill="#30DCCA"/>
<path d="M38.1118 35.0255C37.0597 34.0588 35.4426 34.0588 34.3905 35.0255C34.3474 35.0651 34.3014 35.1111 34.2417 35.1709L33.3442 36.0684C32.4411 36.9715 32.062 38.2734 32.339 39.5202C33.911 46.5941 39.4355 52.1186 46.5094 53.6906C47.7562 53.9676 49.0581 53.5885 49.9612 52.6854L50.8586 51.788C50.9184 51.7282 50.9644 51.6822 51.004 51.6391C51.9708 50.587 51.9708 48.9698 51.004 47.9178C50.9644 47.8746 50.9184 47.8286 50.8586 47.7689L49.3894 46.2996C48.3693 45.2795 46.8287 44.9877 45.5063 45.5642C44.7492 45.8942 43.8672 45.7272 43.2832 45.1432L40.8864 42.7464C40.3024 42.1624 40.1354 41.2804 40.4654 40.5233C41.0418 39.2009 40.7501 37.6603 39.73 36.6402L38.2607 35.1709C38.2009 35.1111 38.1549 35.0651 38.1118 35.0255Z" fill="#30DCCA"/>
<path d="M43.7071 35.7858C43.2929 35.7858 42.9571 36.1216 42.9571 36.5358C42.9571 36.95 43.2929 37.2858 43.7071 37.2858H44.2728C44.36 37.2858 44.3957 37.2858 44.4248 37.2862C46.7244 37.3191 48.5806 39.1753 48.6135 41.4749C48.6139 41.504 48.614 41.5397 48.614 41.6269V42.1926C48.614 42.6068 48.9497 42.9426 49.364 42.9426C49.7782 42.9426 50.114 42.6068 50.114 42.1926V41.6197C50.114 41.542 50.114 41.4947 50.1134 41.4534C50.0688 38.3422 47.5575 35.8309 44.4463 35.7864C44.405 35.7858 44.3577 35.7858 44.28 35.7858H43.7071Z" fill="#30DCCA"/>
</svg>
