<svg width="482" height="355" viewBox="0 0 482 355" fill="none" xmlns="http://www.w3.org/2000/svg">
<path d="M53.2501 92.2666H426.689" stroke="#D5DBDE" stroke-width="1.97" stroke-miterlimit="10"/>
<path d="M421.813 67.7827H58.1259C55.4331 67.7827 53.2501 69.9657 53.2501 72.6585V293.953C53.2501 296.646 55.4331 298.829 58.1259 298.829H421.813C424.506 298.829 426.689 296.646 426.689 293.953V72.6585C426.689 69.9657 424.506 67.7827 421.813 67.7827Z" stroke="#D5DBDE" stroke-width="1.97" stroke-miterlimit="10"/>
<path d="M77.8609 80.2719C77.8623 80.9481 77.6632 81.6096 77.2885 82.1726C76.9139 82.7356 76.3807 83.1748 75.7564 83.4346C75.132 83.6944 74.4446 83.7631 73.7812 83.6321C73.1178 83.5011 72.5081 83.1762 72.0294 82.6986C71.5507 82.2209 71.2245 81.612 71.092 80.9488C70.9595 80.2857 71.0268 79.5982 71.2852 78.9733C71.5437 78.3483 71.9817 77.8142 72.5439 77.4383C73.106 77.0624 73.7671 76.8618 74.4433 76.8618C75.3484 76.8618 76.2165 77.2208 76.8572 77.8601C77.4979 78.4994 77.8589 79.3668 77.8609 80.2719V80.2719Z" fill="#FFB1A5"/>
<path d="M91.1346 80.2719C91.1361 80.9481 90.937 81.6096 90.5623 82.1726C90.1877 82.7356 89.6545 83.1748 89.0301 83.4346C88.4058 83.6944 87.7184 83.7631 87.055 83.6321C86.3916 83.5011 85.7819 83.1762 85.3032 82.6986C84.8245 82.2209 84.4983 81.612 84.3658 80.9488C84.2333 80.2857 84.3006 79.5982 84.559 78.9733C84.8175 78.3483 85.2555 77.8142 85.8177 77.4383C86.3798 77.0624 87.0409 76.8618 87.7171 76.8618C88.6222 76.8618 89.4903 77.2208 90.131 77.8601C90.7717 78.4994 91.1327 79.3668 91.1346 80.2719V80.2719Z" fill="#EAD254"/>
<path d="M104.408 80.2719C104.41 80.9481 104.211 81.6096 103.836 82.1726C103.461 82.7356 102.928 83.1748 102.304 83.4346C101.68 83.6944 100.992 83.7632 100.329 83.6321C99.6653 83.5011 99.0557 83.1762 98.577 82.6986C98.0983 82.2209 97.7721 81.612 97.6396 80.9488C97.5071 80.2857 97.5744 79.5982 97.8328 78.9733C98.0912 78.3484 98.5293 77.8142 99.0915 77.4383C99.6536 77.0625 100.315 76.8618 100.991 76.8618C101.439 76.8608 101.884 76.9483 102.298 77.1193C102.713 77.2902 103.09 77.5412 103.407 77.858C103.724 78.1747 103.976 78.551 104.148 78.9652C104.32 79.3794 104.408 79.8234 104.408 80.2719Z" fill="#00857B"/>
<path d="M475.2 84.5864H387.436C384.962 84.5864 382.956 86.5919 382.956 89.0659V170.234C382.956 172.708 384.962 174.714 387.436 174.714H475.2C477.674 174.714 479.679 172.708 479.679 170.234V89.0659C479.679 86.5919 477.674 84.5864 475.2 84.5864Z" stroke="#D5DBDE" stroke-width="1.97" stroke-miterlimit="10"/>
<path d="M408.651 151.27H454.268C456.754 151.27 458.77 149.254 458.77 146.768V109.384C458.77 106.898 456.754 104.882 454.268 104.882H408.651C406.165 104.882 404.149 106.898 404.149 109.384V146.768C404.149 149.254 406.165 151.27 408.651 151.27Z" fill="#C98BD2"/>
<path d="M443.918 135.789H422.568H418.717V118.889H443.918V123.114V135.789Z" stroke="white" stroke-width="1.65" stroke-linecap="round" stroke-linejoin="round"/>
<path d="M418.717 118.889L431.318 128.82L443.918 118.889" stroke="white" stroke-width="1.65" stroke-linecap="round" stroke-linejoin="round"/>
<path d="M88.9735 161.163H5.27003C2.91175 161.163 0.999985 163.075 0.999985 165.433V238.413C0.999985 240.771 2.91175 242.683 5.27003 242.683H88.9735C91.3317 242.683 93.2435 240.771 93.2435 238.413V165.433C93.2435 163.075 91.3317 161.163 88.9735 161.163Z" stroke="#D5DBDE" stroke-width="1.97" stroke-miterlimit="10"/>
<path d="M68.6103 175.125H25.1994C22.457 175.125 20.2339 177.348 20.2339 180.091V222.013C20.2339 224.756 22.457 226.979 25.1994 226.979H68.6103C71.3527 226.979 73.5759 224.756 73.5759 222.013V180.091C73.5759 177.348 71.3527 175.125 68.6103 175.125Z" fill="#FFB1A5"/>
<path d="M36.4297 191.173C34.3198 193.283 32.8827 195.97 32.3003 198.896C31.7179 201.822 32.0163 204.855 33.1578 207.612C34.2993 210.368 36.2326 212.724 38.7132 214.382C41.1937 216.039 44.1102 216.924 47.0936 216.924C50.0771 216.924 52.9935 216.039 55.4741 214.382C57.9547 212.724 59.888 210.368 61.0295 207.612C62.1709 204.855 62.4694 201.822 61.887 198.896C61.3046 195.97 59.8675 193.283 57.7575 191.173C54.9213 188.36 51.0884 186.782 47.0936 186.782C43.0989 186.782 39.266 188.36 36.4297 191.173V191.173ZM57.7201 193.349H52.9192C52.4152 191.792 51.7901 190.277 51.0496 188.818C53.6811 189.617 56.0074 191.198 57.7201 193.349V193.349ZM41.5598 200.955C41.5726 198.982 41.8237 197.019 42.3076 195.107H51.9545C52.4383 197.019 52.6894 198.982 52.7023 200.955H41.5598ZM52.5752 202.735C52.4326 204.715 52.0842 206.675 51.5357 208.582H42.6591C42.1129 206.674 41.767 204.714 41.6271 202.735H52.5752ZM47.0936 188.249C47.8073 188.247 48.52 188.302 49.2249 188.414C50.1139 189.988 50.8453 191.646 51.4086 193.364H42.7787C43.3438 191.647 44.0751 189.989 44.9624 188.414C45.6668 188.297 46.3796 188.237 47.0936 188.234V188.249ZM43.1377 188.833C42.3972 190.292 41.7721 191.807 41.2681 193.364H36.4671C38.179 191.208 40.5051 189.623 43.1377 188.818V188.833ZM35.2706 195.122H40.7746C40.3025 197.036 40.0516 198.998 40.0267 200.97H33.5207C33.6491 198.907 34.2477 196.902 35.2706 195.107V195.122ZM35.2706 208.582C34.2489 206.792 33.6503 204.792 33.5207 202.735H40.0267C40.1282 204.711 40.4364 206.671 40.9466 208.582H35.2706ZM36.4671 210.347H41.47C41.9827 211.916 42.6024 213.448 43.3246 214.931C40.619 214.143 38.2236 212.536 36.4671 210.332V210.347ZM47.0936 215.447C46.4984 215.446 45.9039 215.406 45.3138 215.328C44.5006 213.711 43.7961 212.043 43.205 210.332H50.9823C50.3944 212.044 49.6898 213.713 48.8734 215.328C48.2833 215.406 47.6889 215.446 47.0936 215.447V215.447ZM50.8327 214.917C51.5542 213.431 52.1762 211.9 52.6948 210.332H57.6902C55.9471 212.524 53.5708 214.124 50.8851 214.917H50.8327ZM58.8942 208.568H53.2108C53.7209 206.656 54.0292 204.696 54.1306 202.72H60.6441C60.5203 204.774 59.9322 206.773 58.9241 208.568H58.8942ZM60.6441 200.955H54.1605C54.1283 198.984 53.8775 197.022 53.4127 195.107H58.9167C59.9366 196.898 60.5374 198.898 60.674 200.955H60.6441Z" fill="white"/>
<path d="M83.9855 46.4624H8.15662C7.40494 46.4624 6.68404 46.1638 6.15252 45.6323C5.62099 45.1008 5.32239 44.3799 5.32239 43.6282V43.6282C5.32239 42.8765 5.62099 42.1556 6.15252 41.6241C6.68404 41.0926 7.40494 40.7939 8.15662 40.7939H83.9855C84.7372 40.7939 85.4581 41.0926 85.9896 41.6241C86.5211 42.1556 86.8197 42.8765 86.8197 43.6282V43.6282C86.8197 44.3799 86.5211 45.1008 85.9896 45.6323C85.4581 46.1638 84.7372 46.4624 83.9855 46.4624V46.4624Z" fill="#C98BD2"/>
<path d="M478.288 231.69H441.481C440.728 231.688 440.007 231.387 439.476 230.855C438.945 230.322 438.646 229.6 438.646 228.848C438.646 228.096 438.945 227.375 439.477 226.844C440.008 226.312 440.729 226.014 441.481 226.014H478.288C479.04 226.014 479.761 226.312 480.292 226.844C480.824 227.375 481.123 228.096 481.123 228.848V228.848C481.123 229.6 480.824 230.322 480.293 230.855C479.762 231.387 479.041 231.688 478.288 231.69V231.69Z" fill="#56DFED"/>
<path d="M452.518 256.001H448.017C446.835 256.001 445.878 256.959 445.878 258.14V262.365C445.878 263.546 446.835 264.504 448.017 264.504H452.518C453.7 264.504 454.657 263.546 454.657 262.365V258.14C454.657 256.959 453.7 256.001 452.518 256.001Z" fill="#C98BD2"/>
<path d="M26.224 275.646H21.7221C20.5409 275.646 19.5833 276.604 19.5833 277.785V282.01C19.5833 283.192 20.5409 284.149 21.7221 284.149H26.224C27.4052 284.149 28.3627 283.192 28.3627 282.01V277.785C28.3627 276.604 27.4052 275.646 26.224 275.646Z" fill="#FFB1A5"/>
<path d="M370.423 20.752H295.574C294.33 20.752 293.323 21.7597 293.323 23.0029V41.2796C293.323 42.5228 294.33 43.5305 295.574 43.5305H370.423C371.666 43.5305 372.674 42.5228 372.674 41.2796V23.0029C372.674 21.7597 371.666 20.752 370.423 20.752Z" fill="#FFB1A5"/>
<path d="M304.136 28.873H357.366" stroke="white" stroke-width="1.18" stroke-miterlimit="10"/>
<path d="M304.136 34.332H325.815" stroke="white" stroke-width="1.18" stroke-miterlimit="10"/>
<path d="M301.967 40.958V49.8346L313.132 40.958H301.967Z" fill="#FFB1A5"/>
<path d="M148.769 5.27733e-05H186.541C187.823 5.27733e-05 189.051 0.509022 189.957 1.41499C190.863 2.32097 191.372 3.54973 191.372 4.83097V40.0533C191.373 40.6883 191.249 41.3173 191.007 41.9043C190.764 42.4912 190.409 43.0247 189.96 43.4741C189.511 43.9234 188.979 44.28 188.392 44.5232C187.805 44.7664 187.177 44.8917 186.541 44.8916H150.31C149.471 44.8946 148.64 44.732 147.864 44.4131C147.089 44.0942 146.384 43.6254 145.79 43.0335C145.196 42.4415 144.724 41.7381 144.403 40.9637C144.081 40.1892 143.916 39.3588 143.916 38.5202V4.86836C143.911 4.22892 144.033 3.59486 144.275 3.00295C144.517 2.41104 144.874 1.87306 145.325 1.4202C145.777 0.967342 146.314 0.608622 146.905 0.36484C147.496 0.121057 148.13 -0.00293604 148.769 5.27733e-05V5.27733e-05Z" fill="#56DFED"/>
<path d="M178.719 25.7622L176.02 23.0626C175.804 22.8123 175.538 22.6104 175.239 22.4699C174.94 22.3294 174.615 22.2536 174.285 22.2474C173.63 22.2575 173.006 22.5264 172.55 22.9953L171.002 24.5358L170.718 24.3937C170.523 24.2965 170.381 24.2441 170.232 24.1544C168.707 23.156 167.356 21.9158 166.231 20.4826C165.723 19.8856 165.3 19.2212 164.974 18.5083C165.363 18.1718 165.722 17.7605 166.036 17.4464L166.47 17.0127C166.727 16.7923 166.934 16.5187 167.076 16.2108C167.217 15.903 167.291 15.5681 167.291 15.2291C167.291 14.8902 167.217 14.5553 167.076 14.2475C166.934 13.9396 166.727 13.666 166.47 13.4456L165.124 12.092C164.966 11.943 164.818 11.7831 164.683 11.6134L163.77 10.6936C163.311 10.2288 162.689 9.96067 162.035 9.9458C161.711 9.94575 161.389 10.0121 161.091 10.1406C160.792 10.2692 160.523 10.4574 160.3 10.6936L158.61 12.3837C157.976 13.0175 157.584 13.8538 157.504 14.7468C157.447 15.9985 157.659 17.2478 158.124 18.4111C158.969 20.7309 160.236 22.8736 161.863 24.7302C163.982 27.2607 166.612 29.3147 169.581 30.7576C170.94 31.4468 172.412 31.8874 173.926 32.0588H174.262C174.806 32.0675 175.345 31.9606 175.843 31.7453C176.342 31.5301 176.79 31.2112 177.156 30.81L177.201 30.7576C177.467 30.4464 177.757 30.1564 178.069 29.8901L178.697 29.262C178.935 29.0379 179.126 28.7676 179.257 28.4677C179.388 28.1677 179.456 27.8442 179.459 27.5169C179.461 27.1896 179.396 26.8653 179.269 26.5636C179.142 26.262 178.955 25.9893 178.719 25.7622ZM177.612 28.2749L177.037 28.8507C176.693 29.1423 176.408 29.4788 176.072 29.8154C175.852 30.0569 175.582 30.2486 175.282 30.3776C174.981 30.5065 174.657 30.5698 174.33 30.5632H174.09C172.78 30.4237 171.51 30.03 170.351 29.4041C167.573 28.0349 165.116 26.0929 163.142 23.7057C161.656 21.9679 160.466 19.9972 159.62 17.8727C159.173 16.942 158.975 15.9115 159.044 14.8814C159.059 14.6155 159.126 14.3552 159.241 14.1152C159.357 13.8753 159.519 13.6604 159.717 13.483L161.355 11.8453C161.531 11.6513 161.774 11.5311 162.035 11.5087C162.165 11.5142 162.292 11.547 162.408 11.605C162.524 11.663 162.626 11.7449 162.708 11.8453L163.576 12.7127C163.727 12.8858 163.889 13.0482 164.062 13.1988L165.408 14.5449C165.596 14.7227 165.715 14.961 165.745 15.2179C165.725 15.4799 165.605 15.724 165.408 15.8984L164.974 16.3322L163.77 17.5362L163.718 17.581C163.55 17.7281 163.433 17.9239 163.382 18.1412C163.331 18.3584 163.349 18.5862 163.434 18.7925V18.8374C163.84 19.7822 164.376 20.6657 165.027 21.4622C166.256 23.0342 167.739 24.3891 169.416 25.4705C169.614 25.5999 169.821 25.7124 170.037 25.8071C170.204 25.8763 170.366 25.9562 170.523 26.0464L170.568 26.0987C170.789 26.215 171.042 26.2539 171.287 26.2092C171.533 26.1644 171.756 26.0386 171.922 25.8519L173.612 24.1693C173.695 24.0703 173.798 23.9889 173.914 23.9298C174.029 23.8708 174.155 23.8352 174.285 23.8253C174.529 23.86 174.752 23.9823 174.913 24.1693L177.612 26.869C177.716 26.9546 177.799 27.062 177.856 27.1835C177.914 27.305 177.943 27.4376 177.943 27.5719C177.943 27.7062 177.914 27.8388 177.856 27.9603C177.799 28.0819 177.716 28.1893 177.612 28.2749V28.2749Z" fill="white"/>
<path d="M344.167 214.833L316.871 211.199L317.088 213.913L293.749 217.017C293.749 217.017 278.673 254.782 291.932 337.79H310.919L317.746 253.623H320.177L326.795 337.79H345.775C359.034 254.782 344.167 214.833 344.167 214.833Z" fill="#8E716C"/>
<path d="M309.072 253.6H328.881" stroke="#282828" stroke-width="1.23" stroke-linecap="round" stroke-linejoin="round"/>
<path d="M360.08 175.02C357.747 171.281 344.623 171.423 343.935 171.34C340.39 170.929 346.179 199.144 353.582 223.815C353.918 224.928 354.485 225.959 355.246 226.839C356.006 227.719 356.944 228.429 357.997 228.923C359.05 229.416 360.195 229.683 361.358 229.705C362.521 229.727 363.676 229.503 364.747 229.05L364.896 228.99C366.641 228.252 368.08 226.939 368.974 225.27C369.867 223.6 370.163 221.675 369.81 219.814C366.302 201.231 362.78 179.327 360.08 175.02Z" fill="#FFB1A5"/>
<path d="M363.206 185.227L346.463 191.726L344.892 183.777L362.234 179.447L363.206 185.227Z" fill="#F3978E"/>
<path d="M366.37 201.125C366.37 201.125 358.435 211.774 358.817 211.288C359.198 210.802 365.039 194.088 365.039 194.088L366.37 201.125Z" fill="#F3978E"/>
<path d="M377.714 186.797L354.973 216.269C354.267 217.183 353.758 218.234 353.478 219.355C353.198 220.476 353.154 221.643 353.348 222.782C353.542 223.921 353.97 225.008 354.605 225.973C355.24 226.939 356.068 227.762 357.037 228.391V228.391C358.003 229.02 359.088 229.443 360.224 229.633C361.361 229.822 362.525 229.776 363.643 229.495C364.76 229.214 365.808 228.705 366.72 228.001C367.632 227.296 368.388 226.41 368.942 225.4L387.877 190.469L377.714 186.797Z" fill="#FFB1A5"/>
<path d="M383.599 194.366C381.836 193.794 380.281 192.712 379.131 191.257C377.982 189.802 377.29 188.039 377.142 186.191C376.995 184.343 377.398 182.492 378.302 180.873C379.206 179.254 380.57 177.94 382.22 177.095C383.871 176.251 385.735 175.915 387.577 176.13C389.419 176.345 391.155 177.101 392.567 178.303C393.98 179.504 395.004 181.098 395.511 182.881C396.017 184.665 395.984 186.559 395.415 188.323C395.037 189.496 394.431 190.583 393.632 191.522C392.833 192.461 391.857 193.233 390.76 193.794C389.662 194.355 388.465 194.694 387.237 194.792C386.008 194.891 384.772 194.745 383.599 194.366V194.366Z" fill="#FFB1A5"/>
<path d="M393.321 179.798C393.321 179.798 395.894 177.136 391.339 175.266C386.785 173.397 381.154 173.83 377.557 182.557L393.321 179.798Z" fill="#FFB1A5"/>
<path d="M398.01 161.177L407.537 165.305C407.664 165.363 407.776 165.447 407.868 165.552C407.959 165.656 408.027 165.779 408.067 165.912C408.108 166.045 408.119 166.185 408.101 166.323C408.083 166.461 408.036 166.593 407.963 166.711L395.467 190.111C395.332 190.373 395.105 190.577 394.829 190.682C394.552 190.786 394.247 190.786 393.972 190.679L384.452 186.551C384.326 186.494 384.214 186.411 384.122 186.307C384.031 186.203 383.962 186.081 383.921 185.949C383.88 185.817 383.868 185.678 383.884 185.54C383.901 185.403 383.947 185.271 384.018 185.153L396.544 161.753C396.677 161.496 396.899 161.296 397.169 161.19C397.439 161.084 397.737 161.08 398.01 161.177V161.177Z" fill="#372F5F"/>
<path d="M397.135 160.765L406.655 164.893C406.781 164.951 406.893 165.034 406.985 165.138C407.076 165.241 407.144 165.363 407.185 165.495C407.226 165.627 407.239 165.767 407.222 165.904C407.206 166.041 407.16 166.173 407.088 166.292L394.562 189.721C394.429 189.985 394.202 190.19 393.925 190.296C393.649 190.403 393.343 190.403 393.067 190.297L383.54 186.169C383.413 186.111 383.301 186.027 383.209 185.923C383.118 185.818 383.05 185.695 383.009 185.562C382.969 185.429 382.957 185.289 382.975 185.151C382.993 185.014 383.04 184.881 383.113 184.763L395.647 161.304C395.787 161.048 396.015 160.853 396.289 160.754C396.563 160.654 396.864 160.659 397.135 160.765Z" fill="#261B43"/>
<path d="M396.058 163.144L404.426 166.771L394.218 185.84L385.85 182.213L396.058 163.144Z" fill="#E6E6E6"/>
<path d="M404.426 166.771L385.85 182.213L396.058 163.144L404.426 166.771Z" fill="white"/>
<path d="M388.602 174.488C390.013 174.792 391.373 175.295 392.641 175.984C393.05 176.216 393.373 176.575 393.56 177.007C393.748 177.438 393.79 177.919 393.68 178.377V178.377C393.575 178.796 393.346 179.173 393.023 179.46C392.701 179.747 392.299 179.93 391.87 179.985L386.92 180.605C386.92 180.605 384.34 185.092 380.937 185.556L384.056 177.756L388.602 174.488Z" fill="#FFB1A5"/>
<path d="M325.382 137.913C324.836 137.913 360.484 142.848 366.37 183.53L347.906 186.334L344.167 216.995H292.567L282.315 160.295C282.315 160.295 293.749 143.91 314.987 137.86L325.382 137.913Z" fill="#3ACBBC"/>
<path d="M347.869 186.334L349.476 168.581" stroke="#282828" stroke-width="1.23" stroke-linecap="round" stroke-linejoin="round"/>
<path d="M328.769 138.496V124.377H312.22V138.661C310.697 139.15 309.212 139.753 307.778 140.463L320.678 148.151L333.877 140.463C332.265 139.592 330.549 138.931 328.769 138.496V138.496Z" fill="#FFB1A5"/>
<path d="M312.07 126.097C312.07 126.097 315.062 133.986 322.974 133.306C330.265 132.685 329.106 121.745 329.106 121.745L312.07 126.097Z" fill="#282828"/>
<path d="M304.854 115.605C302.259 117.961 296.456 109.039 298.969 106.534C301.481 104.029 303.381 107.955 303.381 107.955L304.503 110.617L305.348 114.229L305.549 115.171L304.854 115.605Z" fill="#F3978E"/>
<path d="M300.173 109.705C300.173 109.705 302.139 108.822 303.912 111.672" stroke="#282828" stroke-width="0.99" stroke-linecap="round" stroke-linejoin="round"/>
<path d="M335.522 115.336C337.908 117.901 344.444 109.496 342.155 106.789C339.867 104.082 337.668 107.836 337.668 107.836L336.33 110.393L335.186 113.923L334.901 114.843L335.522 115.336Z" fill="#F3978E"/>
<path d="M340.682 109.839C340.682 109.839 338.798 108.792 336.823 111.477" stroke="#282828" stroke-width="0.99" stroke-linecap="round" stroke-linejoin="round"/>
<path d="M300.3 98.0161C300.3 109.832 309.311 115.433 320.416 115.433C331.521 115.433 340.532 109.832 340.532 98.0161C340.532 86.2005 331.559 78.1689 320.416 78.1689C309.274 78.1689 300.3 86.208 300.3 98.0161Z" fill="#282828"/>
<path d="M303.037 98.8389C303.045 104.879 303.732 110.9 305.086 116.787C306.088 121.139 308.9 124.175 312.886 126.62L313.633 127.069C315.729 128.34 318.128 129.024 320.579 129.051C323.03 129.077 325.443 128.444 327.565 127.219V127.219C331.88 124.706 334.901 121.393 335.829 116.749C336.907 110.843 337.535 104.863 337.706 98.8614C337.706 98.8614 339.314 80.5622 320.626 80.9137C301.938 81.2652 303.037 98.8389 303.037 98.8389Z" fill="#FFB1A5"/>
<path d="M319.227 109.286V111.821C319.228 111.967 319.256 112.111 319.309 112.247C319.421 112.495 319.619 112.695 319.866 112.809C320.114 112.923 320.394 112.944 320.655 112.868L321.815 112.561" stroke="#282828" stroke-width="1.23" stroke-linecap="round" stroke-linejoin="round"/>
<path d="M316.258 99.467L306.97 101.643C306.97 101.643 307.389 99.2801 311.188 98.4201C314.987 97.5601 316.258 99.467 316.258 99.467Z" fill="#282828"/>
<path d="M324.499 99.467L333.473 101.643C333.473 101.643 333.062 99.2801 329.397 98.4201C325.733 97.5601 324.499 99.467 324.499 99.467Z" fill="#282828"/>
<path d="M312.729 107.85C313.592 107.85 314.291 107.15 314.291 106.287C314.291 105.424 313.592 104.724 312.729 104.724C311.865 104.724 311.166 105.424 311.166 106.287C311.166 107.15 311.865 107.85 312.729 107.85Z" fill="#282828"/>
<path d="M329.136 106.287C329.136 106.596 329.044 106.898 328.872 107.155C328.701 107.412 328.456 107.613 328.171 107.731C327.885 107.849 327.571 107.88 327.268 107.82C326.965 107.76 326.686 107.611 326.468 107.392C326.249 107.174 326.1 106.895 326.04 106.592C325.98 106.289 326.01 105.975 326.129 105.689C326.247 105.403 326.447 105.159 326.704 104.988C326.961 104.816 327.264 104.724 327.573 104.724C327.987 104.724 328.385 104.889 328.678 105.182C328.971 105.475 329.136 105.873 329.136 106.287Z" fill="#282828"/>
<path d="M314.291 115.814H326.369C326.369 115.814 320.984 122.328 314.291 115.814Z" fill="white"/>
<path d="M316.781 111.594C319.38 108.995 319.38 104.781 316.781 102.182C314.182 99.5828 309.968 99.5828 307.368 102.182C304.769 104.781 304.769 108.995 307.368 111.594C309.968 114.194 314.182 114.194 316.781 111.594Z" stroke="#C98BD2" stroke-width="1.34" stroke-miterlimit="10"/>
<path d="M333.132 111.599C335.731 109 335.731 104.786 333.132 102.186C330.532 99.5872 326.318 99.5872 323.719 102.186C321.12 104.786 321.12 109 323.719 111.599C326.318 114.198 330.532 114.198 333.132 111.599Z" stroke="#C98BD2" stroke-width="1.34" stroke-miterlimit="10"/>
<path d="M318.741 106.893C318.741 106.893 320.319 105.397 321.785 106.893" stroke="#C98BD2" stroke-width="1.34" stroke-miterlimit="10"/>
<path d="M305.407 106.893L303.314 106.841" stroke="#C98BD2" stroke-width="1.34" stroke-miterlimit="10"/>
<path d="M335.088 106.893L337.197 106.841" stroke="#C98BD2" stroke-width="1.34" stroke-miterlimit="10"/>
<path d="M337.436 104.911C337.436 104.911 329.958 94.8083 331.686 84.5781C333.498 85.6466 335.06 87.0914 336.266 88.8149C337.472 90.5384 338.295 92.5005 338.678 94.569C340.129 101.77 337.436 104.911 337.436 104.911Z" fill="#282828"/>
<path d="M303.037 105.592C303.037 105.592 311.719 94.1205 309.992 83.9053C306.185 86.3361 303.496 90.1758 302.513 94.5841C301.07 101.771 303.037 105.592 303.037 105.592Z" fill="#282828"/>
<path d="M336.816 88.6087C336.816 88.6087 327.221 99.0782 300.98 97.3133C300.98 97.3133 304.996 81.9008 317.716 80.2631C317.716 80.2631 332.404 78.5057 336.816 88.6087Z" fill="#282828"/>
<path d="M348.521 78.332C349.624 71.4984 344.979 65.0644 338.145 63.9613C331.312 62.8581 324.878 67.5036 323.775 74.3372C322.672 81.1708 327.317 87.6047 334.151 88.7078C340.984 89.811 347.418 85.1655 348.521 78.332Z" fill="#282828"/>
<path d="M183.176 214.803L159.844 211.7L160.054 208.985L132.758 212.62C132.758 212.62 117.862 252.538 131.121 335.546H150.1L156.718 251.379H159.149L165.984 335.546H184.964C198.222 252.538 183.176 214.803 183.176 214.803Z" fill="#282828"/>
<path d="M181.322 101.255C177.838 97.0825 175.179 92.2863 173.485 87.1213C171.174 80.5929 163.621 83.2476 163.621 83.2476C163.621 83.2476 157.324 75.1487 147.849 77.968C138.374 80.7873 135.084 87.5326 134.89 95.5418C134.695 103.551 128.391 104.815 123.538 114.088C114.968 130.457 129.393 144.24 155.694 140.418V140.164C158.826 141.029 162.087 141.333 165.326 141.062C196.846 139.192 193.855 115.98 181.322 101.255Z" fill="#282828"/>
<path d="M170.987 113.392C173.582 115.748 179.377 106.826 176.872 104.321C174.367 101.816 172.46 105.742 172.46 105.742L171.338 108.404L170.493 112.016L170.291 112.958L170.987 113.392Z" fill="#F3978E"/>
<path d="M175.661 107.462C175.661 107.462 173.701 106.58 171.959 109.429" stroke="#282828" stroke-width="0.99" stroke-linecap="round" stroke-linejoin="round"/>
<path d="M140.319 113.123C137.933 115.688 131.397 107.29 133.686 104.575C135.974 101.86 138.172 105.622 138.172 105.622L139.519 108.187L140.663 111.709L140.939 112.629L140.319 113.123Z" fill="#F3978E"/>
<path d="M135.159 107.626C135.159 107.626 137.036 106.579 139.018 109.264" stroke="#282828" stroke-width="0.99" stroke-linecap="round" stroke-linejoin="round"/>
<path d="M175.534 95.811C175.534 107.619 166.56 113.22 155.425 113.22C144.29 113.22 135.308 107.619 135.308 95.811C135.308 84.0029 144.282 75.9639 155.425 75.9639C166.567 75.9639 175.534 83.9954 175.534 95.811Z" fill="#282828"/>
<path d="M163.621 122.164H147.072V143.589H163.621V122.164Z" fill="#FFB1A5"/>
<path d="M144.656 120.825C144.656 120.825 149.263 130.016 154.931 131.452C156.454 131.819 158.051 131.728 159.523 131.19C161.654 130.442 164.354 127.256 164.817 123.712L165.027 121.7C165.027 121.7 154.969 127.212 144.656 120.825Z" fill="#282828"/>
<path d="M172.804 96.6257C172.795 102.666 172.108 108.686 170.755 114.573C169.753 118.918 166.934 121.954 162.955 124.4L162.207 124.848C160.112 126.119 157.713 126.804 155.262 126.83C152.811 126.856 150.398 126.224 148.276 124.998V124.998C143.961 122.485 140.939 119.172 140.012 114.528C138.933 108.622 138.306 102.642 138.135 96.6407C138.135 96.6407 136.527 78.3415 155.208 78.693C173.888 79.0445 172.804 96.6257 172.804 96.6257Z" fill="#FFB1A5"/>
<path d="M154.176 108.067V109.563C154.176 109.709 154.204 109.854 154.258 109.989C154.37 110.238 154.568 110.437 154.815 110.551C155.062 110.665 155.343 110.686 155.604 110.61L156.763 110.303" stroke="#282828" stroke-width="1.23" stroke-linecap="round" stroke-linejoin="round"/>
<path d="M158.064 98.1433L168.01 100.499C168.01 100.499 167.554 97.9414 163.486 97.0141C159.418 96.0868 158.064 98.1433 158.064 98.1433Z" fill="#282828"/>
<path d="M152.845 98.1433L142.779 100.499C142.779 100.499 143.235 97.9414 147.356 97.0141C151.476 96.0868 152.845 98.1433 152.845 98.1433Z" fill="#282828"/>
<path d="M149.24 104.313C149.243 104.625 149.153 104.93 148.982 105.191C148.811 105.451 148.567 105.655 148.279 105.776C147.992 105.896 147.676 105.929 147.37 105.87C147.064 105.81 146.783 105.661 146.562 105.441C146.341 105.222 146.191 104.941 146.13 104.636C146.069 104.33 146.1 104.013 146.22 103.726C146.339 103.438 146.542 103.192 146.801 103.02C147.061 102.848 147.366 102.756 147.677 102.758C148.091 102.758 148.487 102.921 148.78 103.213C149.073 103.504 149.238 103.9 149.24 104.313V104.313Z" fill="#282828"/>
<path d="M164.084 104.313C164.086 104.623 163.996 104.926 163.825 105.184C163.654 105.442 163.41 105.643 163.125 105.763C162.839 105.882 162.525 105.914 162.221 105.855C161.918 105.795 161.638 105.647 161.419 105.429C161.2 105.21 161.05 104.932 160.989 104.628C160.928 104.325 160.959 104.01 161.077 103.724C161.195 103.438 161.395 103.194 161.652 103.022C161.91 102.85 162.212 102.758 162.522 102.758C162.726 102.757 162.929 102.796 163.119 102.874C163.309 102.952 163.481 103.066 163.626 103.211C163.771 103.355 163.887 103.527 163.965 103.716C164.044 103.906 164.084 104.108 164.084 104.313V104.313Z" fill="#282828"/>
<path d="M148.238 113.22H161.983C161.983 113.22 161.011 116.996 154.782 116.996C153.45 117.024 152.136 116.687 150.983 116.022C149.829 115.356 148.88 114.387 148.238 113.22V113.22Z" fill="white"/>
<path d="M138.397 102.698C138.397 102.698 145.875 92.5949 144.148 82.3647C142.335 83.4332 140.774 84.878 139.567 86.6015C138.361 88.325 137.539 90.2872 137.155 92.3556C135.712 99.5646 138.397 102.698 138.397 102.698Z" fill="#282828"/>
<path d="M172.811 102.361C172.811 102.361 164.137 91.892 165.857 81.6768C169.663 84.1076 172.352 87.9473 173.335 92.3556C174.771 99.5646 172.811 102.361 172.811 102.361Z" fill="#282828"/>
<path d="M139.025 86.3954C139.025 86.3954 147.595 97.9192 173.836 96.117C173.836 96.117 170.845 79.665 158.132 78.0497C158.124 78.0497 143.437 76.2923 139.025 86.3954Z" fill="#282828"/>
<path d="M115.102 265.483C114.721 266.089 136.946 168.79 130.343 170.256C129.745 170.391 118.191 171.468 116.471 174.96C111.49 185.078 107.923 264.751 107.923 264.751L115.102 265.483Z" fill="#FFB1A5"/>
<path d="M107.923 264.75C107.923 264.75 104.341 281.367 117.884 283.199C118.317 283.258 118.757 283.165 119.129 282.936C119.501 282.706 119.783 282.356 119.926 281.943L119.971 281.831C120.122 281.377 120.098 280.884 119.902 280.447C119.707 280.011 119.355 279.664 118.916 279.475C116.71 278.488 113.285 275.998 114.983 270.329C114.983 270.329 116.942 270.09 118.019 273.739C118.082 273.96 118.194 274.164 118.345 274.338C118.497 274.511 118.684 274.648 118.894 274.741C119.105 274.834 119.333 274.879 119.563 274.874C119.793 274.869 120.019 274.813 120.225 274.711C120.516 274.565 120.755 274.332 120.908 274.044C121.061 273.755 121.12 273.427 121.077 273.104C120.748 270.546 119.462 264.391 114.526 262.739L107.923 264.75Z" fill="#FFB1A5"/>
<path d="M112.477 198.337C112.477 198.337 125.28 216.367 125.347 216.023C125.415 215.679 129.834 190.702 129.834 190.702L114.295 183.971L112.477 198.337Z" fill="#F3978E"/>
<path d="M148.059 140.059C148.605 140.059 116.411 140.635 110.526 181.287L129.027 184.121L132.766 214.782H184.365L194.603 158.104C194.603 158.104 187.319 145.825 166.089 139.805L148.059 140.059Z" fill="#2A988D"/>
<path d="M132.325 144.972C132.325 144.972 136.871 151.015 155.507 151.015C173.971 151.015 178.689 144.658 178.689 144.658C178.689 144.658 167.801 138.579 155.17 136.612C147.188 138.269 139.491 141.086 132.325 144.972V144.972Z" fill="#FFB1A5"/>
<path d="M195.665 273.754L195.702 354.818H235.808L238.896 273.754H195.665Z" fill="#005683"/>
<path d="M282.741 273.754L282.696 354.818H242.59L239.509 273.754H282.741Z" fill="#005683"/>
<path d="M260.837 273.754H219.371V301.917H260.837V273.754Z" fill="#005683"/>
<path d="M225.159 301.917H253.763" stroke="#282828" stroke-width="1.4" stroke-linecap="round" stroke-linejoin="round"/>
<path d="M308.077 203.003C310.56 230.478 307.935 250.489 308.66 301.035L284.73 302.044L281.163 207.423L308.077 203.003Z" fill="#FFB1A5"/>
<path d="M284.109 224.442C284.109 224.442 298.931 223.081 309.072 216.396L308.802 210.518L284.124 213.883L284.109 224.442Z" fill="#F3978E"/>
<path d="M259.81 139.805C259.81 139.805 306.923 151.643 315.426 211.408C315.426 211.408 292.385 221.399 269.293 217.099L274.483 197.11L259.81 139.805Z" fill="#40E0D0"/>
<path d="M119.694 164.61L154.752 206.009L144.028 236.221C144.028 236.221 117.383 199.174 105.41 170.54L119.694 164.61Z" fill="#FFB1A5"/>
<path d="M120.845 166.098C120.845 166.098 108.536 173.06 105.41 170.54C99.9365 166.143 95.4122 150.05 95.4122 150.05C95.4122 150.05 118.438 141.375 118.221 141.712C118.004 142.048 120.845 166.098 120.845 166.098Z" fill="#FFB1A5"/>
<path d="M120.845 166.098C120.629 164.864 125.415 151.493 127.052 146.483C127.133 146.184 127.151 145.872 127.105 145.567C127.06 145.261 126.951 144.968 126.787 144.706C126.623 144.444 126.406 144.219 126.15 144.045C125.895 143.87 125.606 143.751 125.302 143.694V143.694C124.765 143.552 124.197 143.59 123.683 143.8C123.169 144.011 122.737 144.383 122.453 144.86L116.68 154.731L120.845 166.098Z" fill="#FFB1A5"/>
<path d="M120.427 151.65L116.463 131.93C116.338 131.29 115.967 130.726 115.43 130.357C114.893 129.988 114.233 129.844 113.592 129.956V129.956C113.052 130.053 112.57 130.352 112.243 130.793C111.917 131.233 111.77 131.781 111.834 132.326L113.569 147.013L120.427 151.65Z" fill="#FFB1A5"/>
<path d="M112.545 144.374L107.16 130.293C106.937 129.7 106.496 129.216 105.928 128.938C105.359 128.66 104.706 128.61 104.102 128.797V128.797C103.593 128.964 103.165 129.317 102.904 129.786C102.644 130.254 102.569 130.804 102.696 131.325L106.689 147.597L112.545 144.374Z" fill="#FFB1A5"/>
<path d="M106.757 148.524L99.9439 134.69C99.6463 134.069 99.1224 133.586 98.4799 133.34C97.8374 133.094 97.125 133.103 96.489 133.366V133.366C96.2041 133.489 95.9464 133.668 95.7308 133.892C95.5152 134.115 95.3458 134.379 95.2325 134.668C95.1193 134.957 95.0643 135.266 95.0707 135.576C95.0771 135.887 95.1449 136.193 95.2701 136.477L100.707 149.541L106.757 148.524Z" fill="#FFB1A5"/>
<path d="M95.4122 150.087L90.0727 141.614C89.9635 141.385 89.901 141.136 89.889 140.882C89.8769 140.628 89.9156 140.374 90.0026 140.136C90.0896 139.897 90.2232 139.678 90.3958 139.491C90.5683 139.305 90.7763 139.154 91.0075 139.049V139.049C91.4707 138.848 91.9889 138.813 92.4751 138.949C92.9613 139.085 93.3857 139.385 93.6772 139.797L100.707 149.519L95.4122 150.087Z" fill="#FFB1A5"/>
<path d="M119.35 150.17C119.35 150.17 111.326 149.325 110.496 160.018" stroke="#282828" stroke-width="1.53" stroke-linecap="round" stroke-linejoin="round"/>
<path d="M136.916 222.087C136.916 222.087 143.512 244.903 156.651 241.874C169.79 238.846 190.266 210.78 190.266 210.78L185.681 162.86L148.806 208.252L136.916 222.087Z" fill="#FFB1A5"/>
<path d="M160.241 194.149C160.241 194.149 172.692 212.934 183.311 219.575L190.266 210.803L163.449 190.058L160.241 194.149Z" fill="#F3978E"/>
<path d="M214.194 138.765C214.194 138.765 177.633 147.006 158.189 189.489C158.189 189.489 169.96 207.22 188.85 215.102L201.488 199.63L214.194 138.765Z" fill="#40E0D0"/>
<path d="M214.194 138.638C205.592 143.051 197.744 148.801 190.944 155.673L193.756 279.856H283.741L283.449 156.316C283.449 156.316 272.105 145.211 259.81 139.804C249.371 135.175 224.349 133.433 214.194 138.638Z" fill="#40E0D0"/>
<path d="M244.782 174.07H269.811V186.589C269.811 189.909 268.492 193.093 266.145 195.441C263.797 197.788 260.613 199.107 257.293 199.107C253.972 199.107 250.788 197.788 248.441 195.441C246.093 193.093 244.774 189.909 244.774 186.589V174.07H244.782Z" stroke="#282828" stroke-width="1.4" stroke-linecap="round" stroke-linejoin="round"/>
<path d="M284.109 217.518L285.283 176.889" stroke="#282828" stroke-width="1.4" stroke-linecap="round" stroke-linejoin="round"/>
<path d="M192.846 210.743L190.901 175.528" stroke="#282828" stroke-width="1.4" stroke-linecap="round" stroke-linejoin="round"/>
<path d="M215.766 93.2526L212.027 74.6992C211.81 73.2036 211.227 70.8554 211.945 68.6643C213.134 65.0374 217.501 58.0752 224.964 61.2609L226.58 68.6119C226.58 68.6119 218.825 70.1749 215.714 80.3078L215.766 93.2526Z" fill="#282828"/>
<path d="M224.404 65.0674C224.269 67.5053 222.115 78.1767 214.555 82.0653C214.555 82.0354 207.922 67.8268 224.404 65.0674Z" fill="#282828"/>
<path d="M250.951 135.176V103.663H221.898V135.176L213.254 139.117C213.254 139.117 215.28 152.174 236.728 152.465C258.175 152.757 260.329 139.752 260.329 139.752L250.951 135.176Z" fill="#FFB1A5"/>
<path d="M224.957 61.2385C224.957 61.2385 230.289 47.172 246.726 54.6502C256.679 59.1745 259.439 65.2468 260.65 69.5467C261.041 71.1863 261.19 72.8744 261.092 74.5571L257.113 93.2526L241.588 67.4154L226.572 68.5746L224.957 61.2385Z" fill="#282828"/>
<path d="M257.113 93.253C257.113 93.253 259.072 90.1421 263.096 91.6751C267.119 93.2081 265.339 103.012 259.252 104.268C258.571 104.388 257.872 104.359 257.204 104.184C256.535 104.008 255.912 103.69 255.378 103.251C255.378 103.251 256.881 95.9826 257.113 93.253Z" fill="#F3978E"/>
<path d="M262.311 95.1148C262.311 95.1148 258.93 93.9856 256.53 98.9661" stroke="#282828" stroke-width="1.4" stroke-linecap="round" stroke-linejoin="round"/>
<path d="M215.766 93.253C215.766 93.253 213.807 90.1421 209.784 91.6751C205.76 93.2081 207.54 103.012 213.635 104.268C214.316 104.388 215.015 104.359 215.683 104.184C216.352 104.008 216.975 103.69 217.509 103.251C217.509 103.251 216.006 95.9826 215.766 93.253Z" fill="#F3978E"/>
<path d="M210.569 95.1148C210.569 95.1148 213.957 93.9856 216.357 98.9661" stroke="#282828" stroke-width="1.4" stroke-linecap="round" stroke-linejoin="round"/>
<path d="M257.517 83.9275C257.517 89.8352 256.941 102.212 253.307 109.555C249.897 116.45 244.251 120.159 236.855 120.376C229.459 120.593 223.94 117.751 219.52 108.8C215.101 99.8485 215.31 84.0321 215.31 84.0321C215.31 84.0321 215.31 62.9062 236.189 62.9062C258.168 62.9062 257.517 83.9275 257.517 83.9275Z" fill="#FFB1A5"/>
<path d="M222.115 113.212C222.115 113.212 224.553 125.551 235.292 126.972C247.653 128.603 250.951 113.512 250.951 113.512C250.951 113.512 245.485 120.354 236.847 120.362C234.013 120.351 231.217 119.703 228.667 118.466C226.117 117.228 223.877 115.433 222.115 113.212V113.212Z" fill="#282828"/>
<path d="M234.925 92.6919V97.5826C234.924 97.7874 234.962 97.9904 235.038 98.1809C235.192 98.5282 235.468 98.8076 235.813 98.9671C236.158 99.1267 236.55 99.1555 236.915 99.0484L238.537 98.6221" stroke="#282828" stroke-width="1.4" stroke-linecap="round" stroke-linejoin="round"/>
<path d="M228.756 90.3585C228.756 90.7341 228.644 91.1014 228.436 91.4137C228.227 91.7261 227.93 91.9696 227.583 92.1133C227.236 92.2571 226.854 92.2947 226.486 92.2214C226.117 92.1481 225.779 91.9672 225.513 91.7016C225.248 91.4359 225.067 91.0975 224.993 90.729C224.92 90.3606 224.958 89.9786 225.102 89.6316C225.245 89.2845 225.489 88.9878 225.801 88.7791C226.113 88.5704 226.481 88.459 226.856 88.459C227.106 88.459 227.353 88.5081 227.583 88.6036C227.814 88.699 228.023 88.8389 228.2 89.0153C228.376 89.1917 228.516 89.4011 228.611 89.6316C228.707 89.862 228.756 90.109 228.756 90.3585Z" fill="#282828"/>
<path d="M246.576 90.3585C246.576 90.7341 246.465 91.1014 246.256 91.4137C246.048 91.7261 245.751 91.9696 245.404 92.1133C245.057 92.2571 244.675 92.2947 244.306 92.2214C243.938 92.1481 243.6 91.9672 243.334 91.7016C243.068 91.4359 242.887 91.0975 242.814 90.729C242.741 90.3606 242.778 89.9786 242.922 89.6316C243.066 89.2845 243.309 88.9878 243.622 88.7791C243.934 88.5704 244.301 88.459 244.677 88.459C245.181 88.459 245.664 88.6591 246.02 89.0153C246.376 89.3715 246.576 89.8547 246.576 90.3585V90.3585Z" fill="#282828"/>
<path d="M239.809 80.9067L252.589 84.2046C252.589 84.2046 252.013 80.6226 246.786 79.3214C241.559 78.0202 239.809 80.9067 239.809 80.9067Z" fill="#282828"/>
<path d="M231.874 80.9067L219.094 84.2046C219.094 84.2046 219.67 80.6226 224.897 79.3214C230.124 78.0202 231.874 80.9067 231.874 80.9067Z" fill="#282828"/>
<path d="M229.332 102.511C229.332 102.511 231.216 103.954 236.174 103.954C238.691 104.011 241.189 103.518 243.495 102.511" stroke="#282828" stroke-width="1.4" stroke-linecap="round" stroke-linejoin="round"/>
<path d="M226.348 98.9883C230.808 98.9883 234.424 95.3724 234.424 90.9119C234.424 86.4514 230.808 82.8354 226.348 82.8354C221.887 82.8354 218.271 86.4514 218.271 90.9119C218.271 95.3724 221.887 98.9883 226.348 98.9883Z" stroke="white" stroke-width="1.95" stroke-miterlimit="10"/>
<path d="M246.188 98.9883C250.648 98.9883 254.264 95.3724 254.264 90.9119C254.264 86.4514 250.648 82.8354 246.188 82.8354C241.727 82.8354 238.111 86.4514 238.111 90.9119C238.111 95.3724 241.727 98.9883 246.188 98.9883Z" stroke="white" stroke-width="1.95" stroke-miterlimit="10"/>
<path d="M234.424 90.9121C234.424 90.9121 236.331 89.1323 238.111 90.9121" stroke="white" stroke-width="1.95" stroke-miterlimit="10"/>
<path d="M218.271 90.912L215.564 90.8447" stroke="white" stroke-width="1.95" stroke-miterlimit="10"/>
<path d="M254.264 90.9121L257.285 90.8672" stroke="white" stroke-width="1.95" stroke-miterlimit="10"/>
<path d="M222.115 65.5834C222.115 65.5834 225.996 76.5987 243.503 76.2622C255.393 76.0304 258.235 84.6378 258.235 84.6378C258.235 84.6378 256.163 65.4039 255.618 65.5834C255.072 65.7628 237.52 60.8945 237.52 60.8945L222.115 65.5834Z" fill="#282828"/>
</svg>
