<svg width="86" height="87" viewBox="0 0 86 87" fill="none" xmlns="http://www.w3.org/2000/svg">
<rect x="1.5" y="1.65039" width="83" height="83" fill="white"/>
<rect x="1.5" y="1.65039" width="83" height="83" stroke="#30DCCA" stroke-width="3"/>
<path d="M42.2156 54.6816C35.3719 44.8379 34.1531 43.8066 34.1531 40.1504C34.1531 35.1816 38.1375 31.1504 43.1531 31.1504C48.1219 31.1504 52.1531 35.1816 52.1531 40.1504C52.1531 43.8066 50.8875 44.8379 44.0438 54.6816C43.6219 55.3379 42.6375 55.3379 42.2156 54.6816ZM43.1531 43.9004C45.2156 43.9004 46.9031 42.2598 46.9031 40.1504C46.9031 38.0879 45.2156 36.4004 43.1531 36.4004C41.0438 36.4004 39.4031 38.0879 39.4031 40.1504C39.4031 42.2598 41.0438 43.9004 43.1531 43.9004Z" fill="#30DCCA"/>
</svg>
